<mxfile host="Electron" modified="2024-12-23T02:14:49.669Z" agent="Mozilla/5.0 (Windows NT 10.0; Win64; x64) AppleWebKit/537.36 (KHTML, like Gecko) draw.io/23.0.2 Chrome/120.0.6099.109 Electron/28.1.0 Safari/537.36" etag="kwoKs9E4hpcKF3CPFT1J" version="23.0.2" type="device">
  <diagram name="Структура веб-сайта" id="gmOHmwoVRf7PMb2RGCkY">
    <mxGraphModel dx="1834" dy="836" grid="1" gridSize="10" guides="1" tooltips="1" connect="1" arrows="1" fold="1" page="0" pageScale="1" pageWidth="827" pageHeight="1169" math="0" shadow="0">
      <root>
        <mxCell id="0" />
        <mxCell id="1" parent="0" />
        <mxCell id="OCZXf7afTj5pGQpHhH-d-1" value="&lt;b&gt;&lt;font style=&quot;font-size: 16px;&quot;&gt;images&lt;/font&gt;&lt;/b&gt;" style="rounded=0;whiteSpace=wrap;html=1;fillColor=#fff2cc;strokeColor=#d6b656;strokeWidth=2;" parent="1" vertex="1">
          <mxGeometry x="-80" y="1000" width="160" height="80" as="geometry" />
        </mxCell>
        <mxCell id="OCZXf7afTj5pGQpHhH-d-2" value="&lt;font style=&quot;font-size: 16px;&quot;&gt;&lt;b&gt;index.php&lt;/b&gt;&lt;/font&gt;" style="rounded=1;whiteSpace=wrap;html=1;fillColor=#d5e8d4;strokeColor=#82b366;strokeWidth=2;" parent="1" vertex="1">
          <mxGeometry x="-80" y="160" width="160" height="40" as="geometry" />
        </mxCell>
        <mxCell id="OCZXf7afTj5pGQpHhH-d-4" style="edgeStyle=orthogonalEdgeStyle;rounded=0;orthogonalLoop=1;jettySize=auto;html=1;entryX=0;entryY=0.5;entryDx=0;entryDy=0;exitX=0.25;exitY=1;exitDx=0;exitDy=0;" parent="1" source="OCZXf7afTj5pGQpHhH-d-3" target="OCZXf7afTj5pGQpHhH-d-2" edge="1">
          <mxGeometry relative="1" as="geometry">
            <Array as="points">
              <mxPoint x="-120" y="180" />
            </Array>
          </mxGeometry>
        </mxCell>
        <mxCell id="OCZXf7afTj5pGQpHhH-d-3" value="&lt;b&gt;&lt;font style=&quot;font-size: 16px;&quot;&gt;.&lt;/font&gt;&lt;/b&gt;" style="rounded=0;whiteSpace=wrap;html=1;fillColor=#fff2cc;strokeColor=#d6b656;strokeWidth=2;" parent="1" vertex="1">
          <mxGeometry x="-160" y="40" width="160" height="80" as="geometry" />
        </mxCell>
        <mxCell id="OCZXf7afTj5pGQpHhH-d-5" value="&lt;font style=&quot;font-size: 16px;&quot;&gt;&lt;b&gt;styles.css&lt;/b&gt;&lt;/font&gt;" style="rounded=1;whiteSpace=wrap;html=1;fillColor=#e1d5e7;strokeColor=#9673a6;strokeWidth=2;" parent="1" vertex="1">
          <mxGeometry x="-80" y="720" width="160" height="40" as="geometry" />
        </mxCell>
        <mxCell id="OCZXf7afTj5pGQpHhH-d-6" style="edgeStyle=orthogonalEdgeStyle;rounded=0;orthogonalLoop=1;jettySize=auto;html=1;entryX=0;entryY=0.5;entryDx=0;entryDy=0;exitX=0.25;exitY=1;exitDx=0;exitDy=0;" parent="1" source="OCZXf7afTj5pGQpHhH-d-3" edge="1">
          <mxGeometry relative="1" as="geometry">
            <mxPoint x="-120" y="200" as="sourcePoint" />
            <mxPoint x="-80" y="260" as="targetPoint" />
            <Array as="points">
              <mxPoint x="-120" y="260" />
            </Array>
          </mxGeometry>
        </mxCell>
        <mxCell id="OCZXf7afTj5pGQpHhH-d-7" value="&lt;font style=&quot;font-size: 16px;&quot;&gt;&lt;b&gt;auth.php&lt;/b&gt;&lt;/font&gt;" style="rounded=1;whiteSpace=wrap;html=1;fillColor=#d5e8d4;strokeColor=#82b366;strokeWidth=2;" parent="1" vertex="1">
          <mxGeometry x="-80" y="240" width="160" height="40" as="geometry" />
        </mxCell>
        <mxCell id="OCZXf7afTj5pGQpHhH-d-8" value="&lt;font style=&quot;font-size: 16px;&quot;&gt;&lt;b&gt;vote.php&lt;/b&gt;&lt;/font&gt;" style="rounded=1;whiteSpace=wrap;html=1;fillColor=#d5e8d4;strokeColor=#82b366;strokeWidth=2;" parent="1" vertex="1">
          <mxGeometry x="-80" y="640" width="160" height="40" as="geometry" />
        </mxCell>
        <mxCell id="OCZXf7afTj5pGQpHhH-d-9" value="&lt;font style=&quot;font-size: 16px;&quot;&gt;&lt;b&gt;upload.php&lt;/b&gt;&lt;/font&gt;" style="rounded=1;whiteSpace=wrap;html=1;fillColor=#d5e8d4;strokeColor=#82b366;strokeWidth=2;" parent="1" vertex="1">
          <mxGeometry x="-80" y="320" width="160" height="40" as="geometry" />
        </mxCell>
        <mxCell id="OCZXf7afTj5pGQpHhH-d-10" value="&lt;font style=&quot;font-size: 16px;&quot;&gt;&lt;b&gt;login.php&lt;/b&gt;&lt;/font&gt;" style="rounded=1;whiteSpace=wrap;html=1;fillColor=#d5e8d4;strokeColor=#82b366;strokeWidth=2;" parent="1" vertex="1">
          <mxGeometry x="-80" y="480" width="160" height="40" as="geometry" />
        </mxCell>
        <mxCell id="OCZXf7afTj5pGQpHhH-d-11" value="&lt;font style=&quot;font-size: 16px;&quot;&gt;&lt;b&gt;logout.php&lt;/b&gt;&lt;/font&gt;" style="rounded=1;whiteSpace=wrap;html=1;fillColor=#d5e8d4;strokeColor=#82b366;strokeWidth=2;" parent="1" vertex="1">
          <mxGeometry x="-80" y="560" width="160" height="40" as="geometry" />
        </mxCell>
        <mxCell id="OCZXf7afTj5pGQpHhH-d-12" value="&lt;font style=&quot;font-size: 16px;&quot;&gt;&lt;b&gt;register.php&lt;/b&gt;&lt;/font&gt;" style="rounded=1;whiteSpace=wrap;html=1;fillColor=#d5e8d4;strokeColor=#82b366;strokeWidth=2;" parent="1" vertex="1">
          <mxGeometry x="-80" y="400" width="160" height="40" as="geometry" />
        </mxCell>
        <mxCell id="OCZXf7afTj5pGQpHhH-d-13" style="edgeStyle=orthogonalEdgeStyle;rounded=0;orthogonalLoop=1;jettySize=auto;html=1;entryX=0;entryY=0.5;entryDx=0;entryDy=0;exitX=0.25;exitY=1;exitDx=0;exitDy=0;" parent="1" edge="1">
          <mxGeometry relative="1" as="geometry">
            <mxPoint x="-120" y="200" as="sourcePoint" />
            <mxPoint x="-80" y="340" as="targetPoint" />
            <Array as="points">
              <mxPoint x="-120" y="340" />
            </Array>
          </mxGeometry>
        </mxCell>
        <mxCell id="OCZXf7afTj5pGQpHhH-d-14" style="edgeStyle=orthogonalEdgeStyle;rounded=0;orthogonalLoop=1;jettySize=auto;html=1;entryX=0;entryY=0.5;entryDx=0;entryDy=0;exitX=0.25;exitY=1;exitDx=0;exitDy=0;" parent="1" edge="1">
          <mxGeometry relative="1" as="geometry">
            <mxPoint x="-120" y="280" as="sourcePoint" />
            <mxPoint x="-80" y="420" as="targetPoint" />
            <Array as="points">
              <mxPoint x="-120" y="420" />
            </Array>
          </mxGeometry>
        </mxCell>
        <mxCell id="OCZXf7afTj5pGQpHhH-d-15" style="edgeStyle=orthogonalEdgeStyle;rounded=0;orthogonalLoop=1;jettySize=auto;html=1;entryX=0;entryY=0.5;entryDx=0;entryDy=0;exitX=0.25;exitY=1;exitDx=0;exitDy=0;" parent="1" edge="1">
          <mxGeometry relative="1" as="geometry">
            <mxPoint x="-120" y="360" as="sourcePoint" />
            <mxPoint x="-80" y="500" as="targetPoint" />
            <Array as="points">
              <mxPoint x="-120" y="500" />
            </Array>
          </mxGeometry>
        </mxCell>
        <mxCell id="OCZXf7afTj5pGQpHhH-d-16" style="edgeStyle=orthogonalEdgeStyle;rounded=0;orthogonalLoop=1;jettySize=auto;html=1;entryX=0;entryY=0.5;entryDx=0;entryDy=0;exitX=0.25;exitY=1;exitDx=0;exitDy=0;" parent="1" edge="1">
          <mxGeometry relative="1" as="geometry">
            <mxPoint x="-120" y="440" as="sourcePoint" />
            <mxPoint x="-80" y="580" as="targetPoint" />
            <Array as="points">
              <mxPoint x="-120" y="580" />
            </Array>
          </mxGeometry>
        </mxCell>
        <mxCell id="OCZXf7afTj5pGQpHhH-d-17" style="edgeStyle=orthogonalEdgeStyle;rounded=0;orthogonalLoop=1;jettySize=auto;html=1;entryX=0;entryY=0.5;entryDx=0;entryDy=0;exitX=0.25;exitY=1;exitDx=0;exitDy=0;" parent="1" edge="1">
          <mxGeometry relative="1" as="geometry">
            <mxPoint x="-120" y="520" as="sourcePoint" />
            <mxPoint x="-80" y="660" as="targetPoint" />
            <Array as="points">
              <mxPoint x="-120" y="660" />
            </Array>
          </mxGeometry>
        </mxCell>
        <mxCell id="OCZXf7afTj5pGQpHhH-d-18" style="edgeStyle=orthogonalEdgeStyle;rounded=0;orthogonalLoop=1;jettySize=auto;html=1;entryX=0;entryY=0.5;entryDx=0;entryDy=0;exitX=0.25;exitY=1;exitDx=0;exitDy=0;" parent="1" edge="1">
          <mxGeometry relative="1" as="geometry">
            <mxPoint x="-120" y="600" as="sourcePoint" />
            <mxPoint x="-80" y="740" as="targetPoint" />
            <Array as="points">
              <mxPoint x="-120" y="740" />
            </Array>
          </mxGeometry>
        </mxCell>
        <mxCell id="OCZXf7afTj5pGQpHhH-d-19" value="&lt;b&gt;&lt;font style=&quot;font-size: 16px;&quot;&gt;js&lt;/font&gt;&lt;/b&gt;" style="rounded=0;whiteSpace=wrap;html=1;fillColor=#fff2cc;strokeColor=#d6b656;strokeWidth=2;" parent="1" vertex="1">
          <mxGeometry x="-80" y="800" width="160" height="80" as="geometry" />
        </mxCell>
        <mxCell id="OCZXf7afTj5pGQpHhH-d-20" style="edgeStyle=orthogonalEdgeStyle;rounded=0;orthogonalLoop=1;jettySize=auto;html=1;entryX=0;entryY=0.5;entryDx=0;entryDy=0;exitX=0.25;exitY=1;exitDx=0;exitDy=0;" parent="1" target="OCZXf7afTj5pGQpHhH-d-19" edge="1">
          <mxGeometry relative="1" as="geometry">
            <mxPoint x="-120" y="710" as="sourcePoint" />
            <mxPoint x="-80" y="850" as="targetPoint" />
            <Array as="points">
              <mxPoint x="-120" y="840" />
            </Array>
          </mxGeometry>
        </mxCell>
        <mxCell id="OCZXf7afTj5pGQpHhH-d-21" style="edgeStyle=orthogonalEdgeStyle;rounded=0;orthogonalLoop=1;jettySize=auto;html=1;exitX=0.25;exitY=1;exitDx=0;exitDy=0;" parent="1" edge="1">
          <mxGeometry relative="1" as="geometry">
            <mxPoint x="40" y="1080" as="sourcePoint" />
            <mxPoint x="80" y="1140" as="targetPoint" />
            <Array as="points">
              <mxPoint x="40" y="1140" />
            </Array>
          </mxGeometry>
        </mxCell>
        <mxCell id="OCZXf7afTj5pGQpHhH-d-22" value="&lt;font style=&quot;font-size: 16px;&quot;&gt;&lt;b&gt;vote.js&lt;/b&gt;&lt;/font&gt;" style="rounded=1;whiteSpace=wrap;html=1;fillColor=#dae8fc;strokeColor=#6c8ebf;strokeWidth=2;" parent="1" vertex="1">
          <mxGeometry x="80" y="920" width="160" height="40" as="geometry" />
        </mxCell>
        <mxCell id="OCZXf7afTj5pGQpHhH-d-23" style="edgeStyle=orthogonalEdgeStyle;rounded=0;orthogonalLoop=1;jettySize=auto;html=1;entryX=0;entryY=0.5;entryDx=0;entryDy=0;" parent="1" edge="1">
          <mxGeometry relative="1" as="geometry">
            <mxPoint x="-120" y="840" as="sourcePoint" />
            <mxPoint x="-80" y="1040" as="targetPoint" />
            <Array as="points">
              <mxPoint x="-120" y="1040" />
            </Array>
          </mxGeometry>
        </mxCell>
        <mxCell id="OCZXf7afTj5pGQpHhH-d-24" style="edgeStyle=orthogonalEdgeStyle;rounded=0;orthogonalLoop=1;jettySize=auto;html=1;exitX=0.25;exitY=1;exitDx=0;exitDy=0;" parent="1" edge="1">
          <mxGeometry relative="1" as="geometry">
            <mxPoint x="40" y="880" as="sourcePoint" />
            <mxPoint x="80" y="940" as="targetPoint" />
            <Array as="points">
              <mxPoint x="40" y="940" />
            </Array>
          </mxGeometry>
        </mxCell>
        <mxCell id="OCZXf7afTj5pGQpHhH-d-25" value="&lt;font style=&quot;font-size: 16px;&quot;&gt;&lt;b&gt;*.jpg&lt;/b&gt;&lt;/font&gt;" style="rounded=1;whiteSpace=wrap;html=1;fillColor=#f5f5f5;strokeColor=#666666;strokeWidth=2;fontColor=#333333;" parent="1" vertex="1">
          <mxGeometry x="80" y="1120" width="160" height="40" as="geometry" />
        </mxCell>
        <mxCell id="OCZXf7afTj5pGQpHhH-d-26" value="&lt;font style=&quot;font-size: 16px;&quot;&gt;&lt;b&gt;*.png&lt;/b&gt;&lt;/font&gt;" style="rounded=1;whiteSpace=wrap;html=1;fillColor=#f5f5f5;strokeColor=#666666;strokeWidth=2;fontColor=#333333;" parent="1" vertex="1">
          <mxGeometry x="80" y="1200" width="160" height="40" as="geometry" />
        </mxCell>
        <mxCell id="OCZXf7afTj5pGQpHhH-d-27" value="&lt;font style=&quot;font-size: 16px;&quot;&gt;&lt;b&gt;*.gif&lt;/b&gt;&lt;/font&gt;" style="rounded=1;whiteSpace=wrap;html=1;fillColor=#f5f5f5;strokeColor=#666666;strokeWidth=2;fontColor=#333333;" parent="1" vertex="1">
          <mxGeometry x="80" y="1280" width="160" height="40" as="geometry" />
        </mxCell>
        <mxCell id="OCZXf7afTj5pGQpHhH-d-28" style="edgeStyle=orthogonalEdgeStyle;rounded=0;orthogonalLoop=1;jettySize=auto;html=1;" parent="1" edge="1">
          <mxGeometry relative="1" as="geometry">
            <mxPoint x="40" y="1080" as="sourcePoint" />
            <mxPoint x="80" y="1220" as="targetPoint" />
            <Array as="points">
              <mxPoint x="40" y="1220" />
            </Array>
          </mxGeometry>
        </mxCell>
        <mxCell id="OCZXf7afTj5pGQpHhH-d-29" style="edgeStyle=orthogonalEdgeStyle;rounded=0;orthogonalLoop=1;jettySize=auto;html=1;" parent="1" edge="1">
          <mxGeometry relative="1" as="geometry">
            <mxPoint x="40" y="1160" as="sourcePoint" />
            <mxPoint x="80" y="1300" as="targetPoint" />
            <Array as="points">
              <mxPoint x="40" y="1300" />
            </Array>
          </mxGeometry>
        </mxCell>
      </root>
    </mxGraphModel>
  </diagram>
</mxfile>
